# xmcd CD database file
#
# Track frame offsets:
#	150
#	10912
#	21082
#	31870
#	42465
#	51685
#	61712
#	73020
#	85695
#	98015
#	107440
#	121062
#
# Disc length: 1769 seconds
#
# Revision: 3
# Processed by: cddbd v1.5.1PL0 Copyright (c) Steve Scherf et al.
# Submitted via: CDex 1.51
#
DISCID=9006e70c
DTITLE=Patsy Cline - Sweet Dreams
DYEAR=1900
DGENRE=Country
TTITLE0=San Antonio Rose
TTITLE1=Seven Lonely Days
TTITLE2=Your Cheatin' Heart
TTITLE3=Lovesick Blues
TTITLE4=Walking After Midnight
TTITLE5=Foolin' Round
TTITLE6=Half As Much
TTITLE7=I Fall to Pieces
TTITLE8=Crazy
TTITLE9=Blue Moon of Kentucky
TTITLE10=She's Got You
TTITLE11=Sweet Dreams
EXTD=
EXTT0=
EXTT1=
EXTT2=
EXTT3=
EXTT4=
EXTT5=
EXTT6=
EXTT7=
EXTT8=
EXTT9=
EXTT10=
EXTT11=
PLAYORDER=
